<svg width="101" height="101" viewBox="0 0 101 101" fill="none" xmlns="http://www.w3.org/2000/svg">
<rect x="0.63623" y="0.84375" width="100" height="100" rx="32" fill="black"/>
<path d="M44.2058 58.4918C45.3846 58.4918 46.4682 58.2449 47.2034 57.8421C47.5394 57.657 48.019 57.3383 48.4314 56.9984C48.8422 56.6599 49.4246 56.1324 49.917 55.5791L55.1342 49.7672C56.4502 48.3026 54.2233 44.8326 54.7033 44.6547L60.397 50.3509C59.8386 50.982 53.1782 58.4778 53.1782 58.4778C52.7242 58.996 52.2458 59.4961 51.9206 59.811C51.6082 60.1153 51.0738 60.5689 50.7978 60.7823C49.2314 61.995 47.139 62.9786 44.3214 62.9786C37.937 62.9786 32.7742 57.4875 32.7742 51.1646C32.7742 43.3208 38.5738 38.7694 43.8558 38.7694C45.475 38.7186 46.7742 39.0065 47.8014 39.3751C48.7506 39.7162 49.4674 40.1287 49.9874 40.4094C49.3726 40.8257 48.7778 41.3934 47.7974 42.5L46.7262 43.7152C46.4798 43.615 45.387 43.2122 43.9842 43.2574C40.595 43.3631 36.8882 46.2661 37.0218 51.0285C37.1462 55.4814 40.6198 58.4918 44.2058 58.4918Z" fill="url(#paint0_linear_208_8124)"/>
<path d="M54.0705 43.8453C53.7333 44.0317 53.2549 44.3496 52.8401 44.6894C52.4305 45.028 51.8485 45.5555 51.3545 46.1075L46.1385 51.9207C45.5169 54.1514 46.9996 56.8041 46.52 56.9825L40.8757 51.3382C41.4357 50.7055 48.0949 43.2109 48.0949 43.2109C48.5501 42.6927 49.0273 42.1926 49.3525 41.8765C49.6649 41.5721 50.1993 41.1203 50.4777 40.9051C52.0413 39.6924 54.1365 38.7089 56.9541 38.7089C63.3381 38.7089 68.4985 44.2004 68.4985 50.5216C68.4985 58.3679 62.7001 62.9168 57.4169 62.9168C55.7989 62.9688 54.4985 62.6809 53.4729 62.3094C52.5213 61.9696 51.8017 61.5545 51.2829 61.2751C51.9325 60.8118 52.4885 60.3038 53.4765 59.1883L54.5461 57.9731C54.7925 58.0716 55.8857 58.4748 57.2897 58.4309C60.6777 58.3239 64.3857 55.418 64.2521 50.6569C64.1265 46.206 60.6505 43.1944 57.0665 43.1944C55.8857 43.1944 54.8069 43.4425 54.0705 43.8453Z" fill="url(#paint1_linear_208_8124)"/>
<defs>
<linearGradient id="paint0_linear_208_8124" x1="54.6154" y1="41.4385" x2="7.40903" y2="108.264" gradientUnits="userSpaceOnUse">
<stop stop-color="#F3C879"/>
<stop offset="1" stop-color="#91754D"/>
</linearGradient>
<linearGradient id="paint1_linear_208_8124" x1="62.717" y1="41.3837" x2="15.5132" y2="108.208" gradientUnits="userSpaceOnUse">
<stop stop-color="#F3C879"/>
<stop offset="1" stop-color="#91754D"/>
</linearGradient>
</defs>
</svg>
